<svg xmlns="http://www.w3.org/2000/svg" width="24" height="24"><path d="M12 3a9 9 0 1 1 0 18 9 9 0 0 1 0-18Zm4.3 13.3c-.5 1-1.2 2-2 2.9a7.5 7.5 0 0 0 3.2-2.1l-.2-.2a6 6 0 0 0-1-.6Zm-8.6 0c-.5.2-.9.5-1.2.8.9 1 2 1.7 3.2 2a10 10 0 0 1-2-2.8Zm3.6-.8c-.8 0-1.6.1-2.2.3.5 1 1.2 1.9 2.1 2.7Zm1.5 0v3c.9-.8 1.6-1.7 2.1-2.7-.6-.2-1.4-.3-2.1-.3Zm-6-2.7H4.5c.2 1 .5 2.1 1 3h.3l1.3-1a10 10 0 0 1-.3-2Zm12.7 0h-2.3c0 .7-.1 1.4-.3 2l1.6 1.1c.5-1 .9-2 1-3.1Zm-3.8 0h-3V14c1 0 2 .1 2.7.4.2-.5.3-1 .3-1.6Zm-4.4 0h-3l.3 1.6c.8-.3 1.7-.4 2.7-.4v-1.3Zm-5.5-5c-.7 1-1.1 2.2-1.3 3.5h2.3c0-1 .2-1.8.5-2.6l-1.5-1Zm2.9 1.4v.1c-.2.6-.4 1.3-.4 2h3V9.4c-1 0-1.8-.1-2.6-.3Zm6.6 0h-.1l-2.4.3v1.8h3l-.5-2.1Zm3-1.4-.3.1-1.3.8c.3.8.5 1.6.5 2.6h2.3a7.5 7.5 0 0 0-1.3-3.5Zm-9 0 2 .2V5.5a9 9 0 0 0-2 2.2Zm3.5-2.3V8c.6 0 1.3 0 1.9-.2a9 9 0 0 0-2-2.3Zm-3-.7h-.1c-1.1.4-2.1 1-3 1.8l1.2.7a10 10 0 0 1 1.9-2.5Zm4.4 0 .1.1a10 10 0 0 1 1.8 2.4l1.1-.7a7.5 7.5 0 0 0-3-1.8Z"/></svg>
